<svg width="20" height="17" viewBox="0 0 20 17" fill="none" xmlns="http://www.w3.org/2000/svg">
<path d="M17 0.981445H3C2.20435 0.981445 1.44129 1.29752 0.87868 1.86013C0.316071 2.42273 0 3.1858 0 3.98145V13.9814C0 14.7771 0.316071 15.5402 0.87868 16.1028C1.44129 16.6654 2.20435 16.9814 3 16.9814H17C17.7956 16.9814 18.5587 16.6654 19.1213 16.1028C19.6839 15.5402 20 14.7771 20 13.9814V3.98145C20 3.1858 19.6839 2.42273 19.1213 1.86013C18.5587 1.29752 17.7956 0.981445 17 0.981445ZM3 2.98145H17C17.2652 2.98145 17.5196 3.0868 17.7071 3.27434C17.8946 3.46188 18 3.71623 18 3.98145L10 8.86145L2 3.98145C2 3.71623 2.10536 3.46188 2.29289 3.27434C2.48043 3.0868 2.73478 2.98145 3 2.98145ZM18 13.9814C18 14.2467 17.8946 14.501 17.7071 14.6886C17.5196 14.8761 17.2652 14.9814 17 14.9814H3C2.73478 14.9814 2.48043 14.8761 2.29289 14.6886C2.10536 14.501 2 14.2467 2 13.9814V6.26145L9.48 10.8314C9.63202 10.9192 9.80446 10.9654 9.98 10.9654C10.1555 10.9654 10.328 10.9192 10.48 10.8314L18 6.26145V13.9814Z" fill="white"/>
</svg>
