<svg width="20" height="21" viewBox="0 0 20 21" fill="none" xmlns="http://www.w3.org/2000/svg">
<path d="M4.42623 7.86669H0.327869V20.9814H4.42623V7.86669ZM4.79508 3.35849C4.79724 3.04849 4.73832 2.74109 4.62168 2.45385C4.50503 2.16662 4.33296 1.90517 4.11527 1.68444C3.89758 1.46371 3.63855 1.28802 3.35296 1.1674C3.06738 1.04678 2.76083 0.983591 2.45082 0.981445H2.37705C1.74662 0.981445 1.14201 1.23188 0.696222 1.67767C0.250439 2.12345 0 2.72806 0 3.35849C0 3.98893 0.250439 4.59354 0.696222 5.03932C1.14201 5.48511 1.74662 5.73554 2.37705 5.73554C2.68708 5.74317 2.99557 5.68963 3.2849 5.578C3.57424 5.46636 3.83874 5.2988 4.06329 5.0849C4.28784 4.87101 4.46805 4.61496 4.59361 4.33139C4.71918 4.04783 4.78764 3.7423 4.79508 3.43227V3.35849ZM20 13.0142C20 9.07161 17.4918 7.53882 15 7.53882C14.1841 7.49797 13.3718 7.67174 12.6441 8.04281C11.9163 8.41387 11.2986 8.96926 10.8525 9.65358H10.7377V7.86669H6.88525V20.9814H10.9836V14.006C10.9244 13.2916 11.1494 12.5827 11.6098 12.0333C12.0702 11.4838 12.7289 11.1383 13.4426 11.0716H13.5984C14.9016 11.0716 15.8689 11.8913 15.8689 13.9569V20.9814H19.9672L20 13.0142Z" fill="white"/>
</svg>
