<svg width="20" height="21" viewBox="0 0 20 21" fill="none" xmlns="http://www.w3.org/2000/svg">
<path fill-rule="evenodd" clip-rule="evenodd" d="M10 0.981445C7.284 0.981445 6.944 0.992779 5.87733 1.04145C4.81267 1.09011 4.08533 1.25945 3.44933 1.50678C2.78267 1.75745 2.178 2.15078 1.678 2.66011C1.16948 3.15953 0.775905 3.76378 0.524667 4.43078C0.278667 5.06678 0.108667 5.79478 0.06 6.85945C0.012 7.92545 0 8.26478 0 10.9814C0 13.6981 0.0113333 14.0374 0.06 15.1041C0.108667 16.1688 0.278 16.8961 0.525333 17.5321C0.776 18.1988 1.16933 18.8034 1.67867 19.3034C2.1781 19.8119 2.78234 20.2055 3.44933 20.4568C4.08533 20.7034 4.81267 20.8728 5.87733 20.9214C6.944 20.9701 7.284 20.9814 10 20.9814C12.716 20.9814 13.056 20.9701 14.1227 20.9214C15.1873 20.8728 15.9147 20.7034 16.5507 20.4561C17.2173 20.2054 17.822 19.8121 18.322 19.3028C18.8305 18.8034 19.2241 18.1991 19.4753 17.5321C19.722 16.8961 19.8913 16.1688 19.94 15.1041C19.9887 14.0374 20 13.6974 20 10.9814C20 8.26545 19.9887 7.92545 19.94 6.85878C19.8913 5.79411 19.722 5.06678 19.4747 4.43078C19.2236 3.76349 18.83 3.15899 18.3213 2.65945C17.8219 2.15093 17.2177 1.75735 16.5507 1.50611C15.9147 1.26011 15.1867 1.09011 14.122 1.04145C13.056 0.993445 12.7167 0.981445 10 0.981445ZM10 2.78345C12.67 2.78345 12.9867 2.79345 14.0413 2.84145C15.016 2.88611 15.5453 3.04811 15.898 3.18611C16.3647 3.36678 16.698 3.58411 17.048 3.93345C17.398 4.28345 17.6147 4.61678 17.7953 5.08345C17.9327 5.43611 18.0953 5.96545 18.14 6.94011C18.188 7.99478 18.198 8.31145 18.198 10.9814C18.198 13.6514 18.188 13.9681 18.14 15.0228C18.0953 15.9974 17.9333 16.5268 17.7953 16.8794C17.6353 17.3138 17.3799 17.7068 17.048 18.0294C16.7254 18.3614 16.3324 18.6168 15.898 18.7768C15.5453 18.9141 15.016 19.0768 14.0413 19.1214C12.9867 19.1694 12.6707 19.1794 10 19.1794C7.32933 19.1794 7.01333 19.1694 5.95867 19.1214C4.984 19.0768 4.45467 18.9148 4.102 18.7768C3.66764 18.6167 3.27467 18.3614 2.952 18.0294C2.62012 17.7067 2.36475 17.3138 2.20467 16.8794C2.06733 16.5268 1.90467 15.9974 1.86 15.0228C1.812 13.9681 1.802 13.6514 1.802 10.9814C1.802 8.31145 1.812 7.99478 1.86 6.94011C1.90467 5.96545 2.06667 5.43611 2.20467 5.08345C2.38533 4.61678 2.60267 4.28345 2.952 3.93345C3.27463 3.60148 3.66761 3.3461 4.102 3.18611C4.45467 3.04878 4.984 2.88611 5.95867 2.84145C7.01333 2.79345 7.33 2.78345 10 2.78345Z" fill="white"/>
<path fill-rule="evenodd" clip-rule="evenodd" d="M10 14.3181C9.56184 14.3181 9.12795 14.2318 8.72313 14.0641C8.31831 13.8964 7.95047 13.6507 7.64064 13.3408C7.3308 13.031 7.08502 12.6632 6.91734 12.2583C6.74965 11.8535 6.66335 11.4196 6.66335 10.9814C6.66335 10.5433 6.74965 10.1094 6.91734 9.70456C7.08502 9.29973 7.3308 8.9319 7.64064 8.62207C7.95047 8.31223 8.31831 8.06645 8.72313 7.89877C9.12795 7.73108 9.56184 7.64478 10 7.64478C10.885 7.64478 11.7336 7.99632 12.3594 8.62207C12.9851 9.24781 13.3367 10.0965 13.3367 10.9814C13.3367 11.8664 12.9851 12.7151 12.3594 13.3408C11.7336 13.9666 10.885 14.3181 10 14.3181ZM10 5.84144C8.6368 5.84144 7.32942 6.38298 6.36549 7.34692C5.40155 8.31085 4.86002 9.61823 4.86002 10.9814C4.86002 12.3447 5.40155 13.652 6.36549 14.616C7.32942 15.5799 8.6368 16.1214 10 16.1214C11.3632 16.1214 12.6706 15.5799 13.6345 14.616C14.5985 13.652 15.14 12.3447 15.14 10.9814C15.14 9.61823 14.5985 8.31085 13.6345 7.34692C12.6706 6.38298 11.3632 5.84144 10 5.84144ZM16.6353 5.74811C16.6353 6.07035 16.5073 6.37939 16.2795 6.60725C16.0516 6.8351 15.7426 6.96311 15.4204 6.96311C15.0981 6.96311 14.7891 6.8351 14.5612 6.60725C14.3334 6.37939 14.2053 6.07035 14.2053 5.74811C14.2053 5.42587 14.3334 5.11683 14.5612 4.88898C14.7891 4.66112 15.0981 4.53311 15.4204 4.53311C15.7426 4.53311 16.0516 4.66112 16.2795 4.88898C16.5073 5.11683 16.6353 5.42587 16.6353 5.74811Z" fill="white"/>
</svg>
