<svg width="21" height="18" viewBox="0 0 21 18" fill="none" xmlns="http://www.w3.org/2000/svg">
<path d="M2.29142 8.15631C7.66113 5.80447 11.2409 4.25384 13.0308 3.50471C18.1473 1.36554 19.2091 0.99401 19.9026 0.981568C20.0551 0.978964 20.3947 1.01687 20.6162 1.19713C20.8004 1.34904 20.8523 1.55448 20.8782 1.69858C20.9012 1.84268 20.9329 2.17109 20.907 2.42745C20.6307 5.35569 19.4307 12.4616 18.8207 15.7414C18.5646 17.1291 18.0552 17.5944 17.5631 17.6399C16.4926 17.7388 15.6811 16.9292 14.6451 16.2466C13.025 15.178 12.11 14.5131 10.5359 13.4705C8.7172 12.2657 9.89701 11.6034 10.933 10.5212C11.2035 10.2379 15.917 5.92802 16.0062 5.53711C16.0177 5.48821 16.0293 5.30592 15.92 5.20985C15.8135 5.1135 15.6551 5.14649 15.54 5.17253C15.376 5.20956 12.789 6.93062 7.77035 10.3354C7.03655 10.8429 6.37183 11.0903 5.77327 11.0773C5.11717 11.0631 3.85108 10.7035 2.91009 10.3962C1.75903 10.0192 0.84101 9.81979 0.921584 9.17946C0.961871 8.84613 1.41949 8.50498 2.29142 8.15631Z" fill="white"/>
</svg>
