<svg width="24" height="21" viewBox="0 0 24 21" fill="none" xmlns="http://www.w3.org/2000/svg">
<path d="M12.4232 20.1216C12.1851 19.8817 12.066 19.5763 12.066 19.2055V15.0398C8.21909 15.0398 4.89141 16.1373 3.02922 19.6745C2.74561 20.202 2.29502 20.4814 1.69805 20.4814C0.930313 20.4814 0.583328 19.6854 0.583328 19.0202C0.583328 14.9817 1.44673 11.7331 3.24567 9.45636C4.15476 8.31496 5.31277 7.44255 6.71969 6.83913C8.41285 6.11666 10.2446 5.93401 12.066 5.93401V1.81187C12.066 1.07405 12.6275 0.481445 13.3647 0.481445C13.9526 0.481445 14.4197 0.867011 14.8258 1.25571L23.3647 9.30369C23.5739 9.49998 23.7182 9.69991 23.7976 9.90347C23.9532 10.3025 23.9597 10.6329 23.7976 11.0485C23.7182 11.2521 23.5739 11.452 23.3647 11.6483L14.8258 19.7726C14.566 20.0198 14.3171 20.1979 14.079 20.307C13.55 20.5735 12.8623 20.5511 12.4232 20.1216Z" fill="white"/>
</svg>
