<svg width="15" height="20" viewBox="0 0 15 20" fill="none" xmlns="http://www.w3.org/2000/svg">
<path fill-rule="evenodd" clip-rule="evenodd" d="M7.35417 4.33441C5.56743 4.33441 4.13125 5.80062 4.13125 7.59406C4.13125 9.3875 5.56743 10.8537 7.35417 10.8537C9.1409 10.8537 10.5771 9.3875 10.5771 7.59406C10.5771 5.80062 9.1409 4.33441 7.35417 4.33441ZM5.19375 7.59406C5.19375 6.3738 6.16777 5.39691 7.35417 5.39691C8.54057 5.39691 9.51458 6.3738 9.51458 7.59406C9.51458 8.81432 8.54057 9.7912 7.35417 9.7912C6.16777 9.7912 5.19375 8.81432 5.19375 7.59406Z" fill="white"/>
<path fill-rule="evenodd" clip-rule="evenodd" d="M7.35417 0.241821C3.33758 0.241821 0.09375 3.54034 0.09375 7.59406C0.09375 10.3 1.32608 13.2991 2.78376 15.6004C3.51626 16.7568 4.32121 17.7621 5.08602 18.4855C5.46811 18.8469 5.85063 19.1479 6.21886 19.3615C6.57973 19.5708 6.96926 19.721 7.35417 19.721C7.73908 19.721 8.1286 19.5708 8.48947 19.3615C8.85771 19.1479 9.24023 18.8469 9.62232 18.4855C10.3871 17.7621 11.1921 16.7568 11.9246 15.6004C13.3823 13.2991 14.6146 10.3 14.6146 7.59406C14.6146 3.54034 11.3707 0.241821 7.35417 0.241821ZM1.15625 7.59406C1.15625 4.11352 3.93792 1.30432 7.35417 1.30432C10.7704 1.30432 13.5521 4.11352 13.5521 7.59406C13.5521 10.0194 12.4292 12.8181 11.027 15.0319C10.3295 16.133 9.57837 17.0645 8.8922 17.7136C8.5488 18.0384 8.23212 18.2825 7.95635 18.4424C7.67322 18.6067 7.47394 18.6585 7.35417 18.6585C7.23439 18.6585 7.03511 18.6067 6.75198 18.4424C6.47621 18.2825 6.15953 18.0384 5.81613 17.7136C5.12996 17.0645 4.37879 16.133 3.68134 15.0319C2.27913 12.8181 1.15625 10.0194 1.15625 7.59406Z" fill="white"/>
</svg>
