<svg width="20" height="14" viewBox="0 0 20 14" fill="none" xmlns="http://www.w3.org/2000/svg">
<path fill-rule="evenodd" clip-rule="evenodd" d="M0 0.695263C0.15984 8.55933 4.05594 13.2778 10.8891 13.2778H11.2887V8.78114C13.7962 9.03319 15.6943 10.8883 16.4536 13.2778H20C19.6363 11.92 18.9914 10.6554 18.1081 9.56754C17.2247 8.47963 16.1228 7.59308 14.8751 6.96635C15.9932 6.27922 16.9588 5.36679 17.7116 4.28605C18.4645 3.20531 18.9885 1.97949 19.2507 0.685181H16.034C15.3347 3.18555 13.2567 5.45403 11.2887 5.66576V0.695263H8.06194V9.40623C6.06394 8.90212 3.54645 6.46225 3.43656 0.695263H0Z" fill="white"/>
</svg>
