<svg width="20" height="21" viewBox="0 0 20 21" fill="none" xmlns="http://www.w3.org/2000/svg">
<path fill-rule="evenodd" clip-rule="evenodd" d="M8.88515 1.0278C5.24239 1.48414 2.24979 3.69223 0.79833 6.99468C0.270085 8.19669 0.0607515 9.13189 0.0101835 10.5156C-0.0566994 12.3471 0.201011 13.6619 0.927469 15.1946C2.2713 18.03 4.56666 19.9331 7.53094 20.6694C10.9592 21.5211 14.465 20.6066 16.9812 18.2042C18.3621 16.8859 19.4169 14.974 19.8439 13.0157C20.0512 12.0648 20.0522 9.93879 19.8458 8.96585C19.3264 6.51776 18.0413 4.49055 16.0686 3.00731C15.318 2.44292 13.9075 1.70575 13.0644 1.43725C11.9325 1.07672 10.0034 0.887755 8.88515 1.0278ZM8.97785 2.71855C8.08061 3.17522 7.33914 3.99435 6.68492 5.25176C6.37915 5.83941 6.34125 5.95993 6.44904 6.00116C6.62721 6.06944 9.24116 6.32029 9.28791 6.27363C9.30877 6.25282 9.316 5.40955 9.30398 4.39975L9.28215 2.56368L8.97785 2.71855ZM10.7026 4.47629V6.30458L11.1287 6.26059C11.3631 6.23638 11.8471 6.19636 12.2042 6.17174C13.2748 6.09779 13.6247 6.04036 13.6247 5.93879C13.6247 5.75411 13.0434 4.6348 12.6933 4.14501C12.4989 3.87326 12.1736 3.51492 11.9705 3.34888C11.5551 3.00917 10.9572 2.65043 10.8041 2.64898C10.7259 2.64825 10.7026 3.06717 10.7026 4.47629ZM5.45026 3.94883C4.69475 4.46657 3.9217 5.18445 3.99394 5.30117C4.07519 5.43239 4.97169 5.75144 5.00221 5.66007C5.01642 5.61747 5.26081 5.1229 5.54523 4.56085C5.82964 3.99881 6.05627 3.54093 6.04888 3.54335C6.04149 3.54578 5.7721 3.72819 5.45026 3.94883ZM14.0305 3.65376C14.0305 3.67554 14.1695 3.95928 14.3394 4.28432C14.5092 4.60945 14.7283 5.06425 14.8262 5.2951C15.0208 5.75379 15.0142 5.75233 15.6918 5.4869C16.1605 5.30336 16.1622 5.25395 15.7137 4.85658C15.0576 4.27501 14.0305 3.54109 14.0305 3.65376ZM2.75847 6.84378C2.30693 7.54595 1.9424 8.57932 1.74338 9.72188L1.6351 10.3428H2.8687H4.1023L4.24702 9.15611C4.32665 8.50335 4.43533 7.75849 4.48858 7.50075L4.58533 7.0321L3.93054 6.79648C3.57032 6.66688 3.21683 6.5351 3.14491 6.50351C3.04759 6.4609 2.94865 6.54798 2.75847 6.84378ZM16.2221 6.74067C15.8426 6.89173 15.4995 7.02765 15.4596 7.04271C15.4187 7.05818 15.426 7.19239 15.4764 7.34977C15.5644 7.62517 15.7522 8.84629 15.8588 9.83657L15.9133 10.3428H17.1341H18.3548L18.3045 9.91619C18.2423 9.38704 17.9964 8.42251 17.7729 7.83017C17.5803 7.3198 17.1142 6.51639 16.9932 6.48625C16.9485 6.47516 16.6015 6.58969 16.2221 6.74067ZM5.88468 7.48107C5.79523 7.78206 5.60156 8.94228 5.54896 9.49233C5.51917 9.80417 5.47697 10.1231 5.45521 10.2011C5.41836 10.3333 5.54775 10.3428 7.36925 10.3428H9.32273V9.00999V7.67725L9.05893 7.63489C8.91389 7.61156 8.3203 7.5551 7.73995 7.50934C7.15959 7.46358 6.51463 7.4051 6.30675 7.37942C5.98679 7.33989 5.92201 7.35553 5.88468 7.48107ZM12.7318 7.47176C12.1291 7.52886 11.426 7.57859 11.1693 7.58224L10.7026 7.58888V8.96585V10.3428H12.6217H14.5408L14.4883 9.75558C14.4594 9.43264 14.375 8.75833 14.3007 8.25711C14.1772 7.42381 14.1512 7.34686 13.9966 7.35682C13.9036 7.3629 13.3345 7.41457 12.7318 7.47176ZM1.69289 11.8256C1.69289 12.0999 1.82852 12.7533 2.03234 13.4612C2.20482 14.0601 2.77389 15.299 2.93956 15.4362C3.00749 15.4924 3.27332 15.4292 3.80595 15.2302C4.22859 15.0723 4.57965 14.9377 4.58606 14.9311C4.59247 14.9245 4.54783 14.6823 4.48687 14.3927C4.42591 14.1031 4.32072 13.3959 4.25311 12.8211C4.18549 12.2463 4.12015 11.7659 4.10782 11.7537C4.09556 11.7414 3.54718 11.7053 2.88915 11.6734L1.69289 11.6153V11.8256ZM7.15147 11.6994L5.50781 11.7231V12.0148C5.50781 12.3699 5.72916 13.9107 5.84149 14.3374C5.91487 14.6163 5.94425 14.6424 6.14149 14.6041C6.33963 14.5656 7.09052 14.4911 8.73426 14.3469L9.32273 14.2953V12.9671V11.6388L9.05893 11.6572C8.91389 11.6675 8.05545 11.6864 7.15147 11.6994ZM10.7026 12.9697V14.3L11.1287 14.3439C11.3631 14.3681 12.048 14.4269 12.6506 14.4747C13.2533 14.5224 13.8399 14.5796 13.9542 14.6017L14.162 14.6419L14.3408 13.3631C14.4392 12.6597 14.5191 11.9854 14.5186 11.8645L14.5175 11.6448L12.6101 11.642L10.7026 11.6393V12.9697ZM15.8974 11.7026C15.8974 11.9121 15.6428 13.7259 15.5374 14.2669C15.4385 14.7747 15.4333 14.9241 15.5126 14.9741C15.568 15.009 15.9311 15.1445 16.3195 15.275C16.8447 15.4516 17.0456 15.4884 17.1034 15.4183C17.2582 15.2308 17.7536 14.1785 17.9208 13.682C18.1151 13.1053 18.3324 12.1304 18.3324 11.836V11.6388H17.1149C16.4453 11.6388 15.8974 11.6675 15.8974 11.7026ZM10.7026 17.4868C10.7026 18.5025 10.722 19.3336 10.7458 19.3336C10.7696 19.3336 10.9196 19.2792 11.0792 19.2126C11.5567 19.0135 12.1084 18.5633 12.5279 18.0304C13.0664 17.3465 13.7683 15.9741 13.6044 15.9257C13.5933 15.9224 12.9357 15.8567 12.1433 15.7798L10.7026 15.6399V17.4868ZM7.45732 15.8246C6.85553 15.8892 6.35091 15.9544 6.33597 15.9693C6.2837 16.0213 6.82842 17.0314 7.26081 17.6841C7.82469 18.5354 8.47679 19.0927 9.1401 19.2902L9.32273 19.3445V17.5166V15.6887L8.93718 15.6978C8.72509 15.7029 8.05918 15.7599 7.45732 15.8246ZM4.41203 16.4313C4.18882 16.5187 3.97705 16.6189 3.94142 16.6537C3.85181 16.7413 4.74832 17.5535 5.47445 18.0425C5.80529 18.2652 6.07599 18.4317 6.07599 18.4124C6.07599 18.393 5.95724 18.1639 5.81219 17.9033C5.66714 17.6427 5.42266 17.1654 5.26893 16.8426C5.1152 16.5198 4.95083 16.2594 4.90367 16.2639C4.85651 16.2685 4.63525 16.3438 4.41203 16.4313ZM14.8661 16.6032C14.7922 16.7907 14.5744 17.2514 14.3821 17.6269C14.1899 18.0025 14.0458 18.3229 14.0619 18.3389C14.1077 18.3846 15.6666 17.1986 15.9303 16.9175L16.166 16.6662L15.9303 16.5724C15.8006 16.5209 15.5384 16.4301 15.3475 16.3705L15.0006 16.2622L14.8661 16.6032Z" fill="white"/>
</svg>
