<svg width="20" height="15" viewBox="0 0 20 15" fill="none" xmlns="http://www.w3.org/2000/svg">
<path fill-rule="evenodd" clip-rule="evenodd" d="M17.8136 1.39925C18.6746 1.62975 19.3513 2.3064 19.5818 3.16745C19.9983 4.72655 20 7.9814 20 7.9814C20 7.9814 20 11.2363 19.5818 12.7954C19.3513 13.6564 18.6746 14.3331 17.8136 14.5635C16.2545 14.9817 9.99996 14.9817 9.99996 14.9817C9.99996 14.9817 3.74547 14.9817 2.18636 14.5635C1.32532 14.3331 0.648666 13.6564 0.418176 12.7954C1.25176e-07 11.2363 0 7.9814 0 7.9814C0 7.9814 1.25176e-07 4.72655 0.418176 3.16745C0.648666 2.3064 1.32532 1.62975 2.18636 1.39925C3.74547 0.981079 9.99996 0.981079 9.99996 0.981079C9.99996 0.981079 16.2545 0.981079 17.8136 1.39925ZM13.194 7.98169L7.99808 10.9813V4.982L13.194 7.98169Z" fill="white"/>
</svg>
